<svg width="42" height="58" viewBox="0 0 42 58" fill="none" xmlns="http://www.w3.org/2000/svg">
<path d="M0 6C0 2.68629 2.68629 0 6 0H36C39.3137 0 42 2.68629 42 6V40.3515C42 42.323 41.0315 44.1687 39.4091 45.2889L24.4091 55.6461C22.3572 57.0629 19.6428 57.0629 17.5909 55.6461L2.59086 45.2889C0.968516 44.1687 0 42.323 0 40.3515V6Z" fill="white"/>
<path d="M29.4523 25.095L28.6648 20.9025C28.4858 19.9273 27.9705 19.0457 27.2086 18.4112C26.4466 17.7767 25.4863 17.4295 24.4948 17.43H21.8248C21.9073 15.21 20.9698 11.805 16.8523 10.6125C16.7405 10.5799 16.6227 10.5738 16.5081 10.5946C16.3936 10.6154 16.2854 10.6627 16.1923 10.7325C16.0992 10.8024 16.0236 10.893 15.9715 10.9971C15.9194 11.1013 15.8923 11.2161 15.8923 11.3325V12.7875L11.9098 14.7825C11.5325 14.9738 11.2153 15.2655 10.993 15.6254C10.7707 15.9853 10.6519 16.3995 10.6498 16.8225C10.6498 17.715 11.1448 18.5025 11.9398 18.8925L13.7623 19.7625L12.8623 25.1925L12.7423 25.1475C11.5798 24.7275 10.2973 25.335 9.8773 26.4975C9.4648 27.66 10.0723 28.9425 11.2348 29.355L13.2598 30.0825C15.7423 30.9675 18.3448 31.4175 20.9998 31.4175C23.6473 31.4175 26.2498 30.9675 28.7323 30.0825L30.7648 29.355C31.3273 29.16 31.7773 28.7475 32.0323 28.2075C32.2873 27.6675 32.3173 27.06 32.1148 26.4975C31.7248 25.4025 30.5548 24.81 29.4523 25.095ZM18.0748 26.4225C18.2522 25.7801 18.6348 25.2133 19.1642 24.8085C19.6936 24.4036 20.3408 24.1829 21.0073 24.18C21.6148 24.18 22.1998 24.36 22.7023 24.6975C23.2048 25.0425 23.5948 25.5225 23.8198 26.085L24.0598 26.685C22.0573 27.015 20.0098 27.015 17.9998 26.6925L18.0748 26.4225ZM30.6748 27.57C30.5906 27.7434 30.4429 27.8777 30.2623 27.945L28.2298 28.6725C23.5873 30.33 18.4048 30.33 13.7698 28.6725L11.7373 27.945C11.6466 27.9126 11.5632 27.8627 11.4918 27.798C11.4205 27.7333 11.3626 27.6552 11.3215 27.5681C11.2804 27.481 11.2569 27.3867 11.2523 27.2905C11.2477 27.1943 11.2622 27.0981 11.2948 27.0075C11.3261 26.9159 11.3753 26.8315 11.4396 26.7591C11.5039 26.6867 11.5819 26.6278 11.6692 26.586C11.7565 26.5441 11.8512 26.52 11.9479 26.5151C12.0446 26.5102 12.1413 26.5246 12.2323 26.5575L14.2648 27.2775C18.6219 28.8225 23.3777 28.8225 27.7348 27.2775L29.7598 26.5575C29.8513 26.5243 29.9486 26.5096 30.0459 26.5143C30.1431 26.519 30.2385 26.543 30.3264 26.5849C30.4143 26.6267 30.4931 26.6857 30.558 26.7582C30.623 26.8308 30.6729 26.9155 30.7048 27.0075C30.7723 27.1875 30.7648 27.39 30.6748 27.57Z" fill="#212529"/>
</svg>
