<svg width="42" height="58" viewBox="0 0 42 58" fill="none" xmlns="http://www.w3.org/2000/svg">
<path d="M0 6C0 2.68629 2.68629 0 6 0H36C39.3137 0 42 2.68629 42 6V40.3515C42 42.323 41.0315 44.1687 39.4091 45.2889L24.4091 55.6461C22.3572 57.0629 19.6428 57.0629 17.5909 55.6461L2.59086 45.2889C0.968516 44.1687 0 42.323 0 40.3515V6Z" fill="white"/>
<g clip-path="url(#clip0_550_648)">
<path d="M29.8382 15.2969H23.006L27.2012 20.2969H33V19.2536L29.8382 15.2969ZM12.1618 15.2969L9 19.2536V20.2969H14.7988L18.994 15.2969H12.1618Z" fill="#212529"/>
<path d="M31.7032 31.5938V21.7031H26.5455L21.7031 15.9319V12.9062H25.7639V9H20.2969V15.9319L15.4546 21.7031H10.2969V31.5938H9V33H33V31.5938H31.7032ZM12.7657 24H14.1719V26H12.7657V24ZM14.208 30H12.8017V28H14.208V30ZM21 18.7969C22.2148 18.7969 23.2031 19.7852 23.2031 21C23.2031 22.2148 22.2148 23.2031 21 23.2031C19.7852 23.2031 18.7969 22.2148 18.7969 21C18.7969 19.7852 19.7852 18.7969 21 18.7969ZM24.7031 31.5938H23.2969V26.7031H21.7031V31.5938H20.2969V26.7031H18.7031V31.5938H17.2969V25.2969H24.7031V31.5938ZM29.1983 30H27.7921V28H29.1983V30ZM29.2343 26H27.8281V24H29.2343V26Z" fill="#212529"/>
<path d="M21 20.2031C20.5606 20.2031 20.2031 20.5606 20.2031 21C20.2031 21.4394 20.5606 21.7969 21 21.7969C21.4394 21.7969 21.7969 21.4394 21.7969 21C21.7969 20.5606 21.4394 20.2031 21 20.2031Z" fill="#212529"/>
</g>
<defs>
<clipPath id="clip0_550_648">
<rect width="24" height="24" fill="white" transform="translate(9 9)"/>
</clipPath>
</defs>
</svg>
